<?xml version="1.0" encoding="UTF-8"?>
<svg version="1.1" viewBox="0 0 640 512" xmlns="http://www.w3.org/2000/svg"><!--! Font Awesome Pro 6.4.0 by @fontawesome - https://fontawesome.com License - https://fontawesome.com/license (Commercial License) Copyright 2023 Fonticons, Inc. --><path d="m524.53 69.836a1.5 1.5 0 0 0-0.764-0.7 485.06 485.06 0 0 0-119.69-37.106 1.816 1.816 0 0 0-1.923 0.91 337.46 337.46 0 0 0-14.9 30.6 447.85 447.85 0 0 0-134.43 0 309.54 309.54 0 0 0-15.135-30.6 1.89 1.89 0 0 0-1.924-0.91 483.69 483.69 0 0 0-119.69 37.107 1.712 1.712 0 0 0-0.788 0.676c-76.229 113.84-97.111 224.88-86.867 334.54a2.016 2.016 0 0 0 0.765 1.375 487.67 487.67 0 0 0 146.82 74.189 1.9 1.9 0 0 0 2.063-0.676 348.2 348.2 0 0 0 30.037-48.842 1.86 1.86 0 0 0-1.019-2.588 321.17 321.17 0 0 1-45.868-21.853 1.885 1.885 0 0 1-0.185-3.126c3.082-2.309 6.166-4.711 9.109-7.137a1.819 1.819 0 0 1 1.9-0.256c96.229 43.917 200.41 43.917 295.5 0a1.812 1.812 0 0 1 1.924 0.233c2.944 2.426 6.027 4.851 9.132 7.16a1.884 1.884 0 0 1-0.162 3.126 301.41 301.41 0 0 1-45.89 21.83 1.875 1.875 0 0 0-1 2.611 391.06 391.06 0 0 0 30.014 48.815 1.864 1.864 0 0 0 2.063 0.7 486.05 486.05 0 0 0 147.06-74.186 1.882 1.882 0 0 0 0.765-1.352c12.264-126.78-20.532-236.91-86.934-334.54zm-302.04 267.74c-28.972 0-52.844-26.587-52.844-59.239s23.409-59.241 52.844-59.241c29.665 0 53.306 26.82 52.843 59.239 0 32.654-23.41 59.241-52.843 59.241zm195.38 0c-28.971 0-52.843-26.587-52.843-59.239s23.409-59.241 52.843-59.241c29.667 0 53.307 26.82 52.844 59.239 0 32.654-23.177 59.241-52.844 59.241z" fill="#fff"/></svg>
