<?xml version="1.0" encoding="UTF-8" standalone="no"?>
<svg
   viewBox="0 0 576 512"
   version="1.1"
   id="svg4"
   sodipodi:docname="link-simple.svg"
   inkscape:version="1.2.2 (b0a8486541, 2022-12-01)"
   xmlns:inkscape="http://www.inkscape.org/namespaces/inkscape"
   xmlns:sodipodi="http://sodipodi.sourceforge.net/DTD/sodipodi-0.dtd"
   xmlns="http://www.w3.org/2000/svg"
   xmlns:svg="http://www.w3.org/2000/svg">
  <defs
     id="defs8" />
  <sodipodi:namedview
     id="namedview6"
     pagecolor="#505050"
     bordercolor="#ffffff"
     borderopacity="1"
     inkscape:showpageshadow="0"
     inkscape:pageopacity="0"
     inkscape:pagecheckerboard="1"
     inkscape:deskcolor="#505050"
     showgrid="false"
     inkscape:zoom="1.7128906"
     inkscape:cx="287.81756"
     inkscape:cy="256.58381"
     inkscape:window-width="1900"
     inkscape:window-height="1060"
     inkscape:window-x="0"
     inkscape:window-y="0"
     inkscape:window-maximized="1"
     inkscape:current-layer="svg4" />
  <!--! Font Awesome Pro 6.4.0 by @fontawesome - https://fontawesome.com License - https://fontawesome.com/license (Commercial License) Copyright 2023 Fonticons, Inc. -->
  <path
     d="M0 256C0 167.6 71.6 96 160 96h72c13.3 0 24 10.7 24 24s-10.7 24-24 24H160C98.1 144 48 194.1 48 256s50.1 112 112 112h72c13.3 0 24 10.7 24 24s-10.7 24-24 24H160C71.6 416 0 344.4 0 256zm576 0c0 88.4-71.6 160-160 160H344c-13.3 0-24-10.7-24-24s10.7-24 24-24h72c61.9 0 112-50.1 112-112s-50.1-112-112-112H344c-13.3 0-24-10.7-24-24s10.7-24 24-24h72c88.4 0 160 71.6 160 160zM184 232H392c13.3 0 24 10.7 24 24s-10.7 24-24 24H184c-13.3 0-24-10.7-24-24s10.7-24 24-24z"
     id="path2"
     style="fill:#ffffff" />
</svg>
