<?xml version="1.0" encoding="UTF-8"?>
<svg width="2400" height="2400" version="1.1" viewBox="0 0 2400 2400" xmlns="http://www.w3.org/2000/svg"><path d="m252.7 245.76v1908.4h137.3v45.77h-190v-2e3h190v45.77zm586.93 604.99v96.534h2.694c25.768-36.921 56.923-65.383 93.077-85.382 36.152-20.385 78.077-30.385 125-30.385 45 0 86.152 8.8474 123.46 26.153 37.307 17.308 65.386 48.462 85 92.306 21.154-31.153 50-58.845 86.154-82.689 36.154-23.846 79.229-35.77 128.85-35.77 37.693 0 72.693 4.6158 105 13.847 32.307 9.229 59.616 23.846 82.693 44.228 23.076 20.385 40.768 46.538 53.846 79.23 12.691 32.691 19.229 71.92 19.229 118.07v477.29h-195.77v-404.22c0-23.846-0.7683-46.537-2.6927-67.69-1.9219-21.154-6.922-39.616-15-54.999-8.4622-15.77-20.385-28.076-36.539-37.308-16.152-9.229-38.076-13.846-65.383-13.846-27.693 0-50 5.384-66.923 15.77-16.923 10.768-30.386 24.229-40 41.537-9.6172 16.923-16.155 36.152-19.232 58.074-3.0769 21.539-5.0001 43.461-5.0001 65.384v397.3h-195.77v-399.99c0-21.154-0.3828-41.922-1.5365-62.693-0.7695-20.768-5-39.614-11.923-57.305-6.9231-17.308-18.461-31.54-34.616-41.922-16.154-10.385-39.616-15.77-71.154-15.77-9.2291 0-21.539 1.9244-36.539 6.1535-15 4.2317-30 11.923-44.229 23.463-14.232 11.536-26.54 28.076-36.54 49.612-9.9999 21.54-15 49.999-15 84.998v413.83h-195.77v-713.82zm1307.7 1303.5v-1908.4h-137.3v-45.77h190v2e3h-190v-45.77z" fill="#fff" stroke-width="1.3021"/></svg>
