<?xml version="1.0" encoding="UTF-8"?>
<!-- Created with Inkscape (http://www.inkscape.org/) -->
<svg width="2500" height="2500" version="1.1" viewBox="0 0 661.46 661.46" xmlns="http://www.w3.org/2000/svg"><g fill="#ffa6a6" stroke-width=".37606" aria-label="M"><path d="m498.12 547.4-76.975-167.61v133.09q0 18.362 3.9663 22.916 5.4353 6.1698 17.187 6.1698h7.0512v5.4353h-69.337v-5.4353h7.0512q12.633 0 17.922-7.6388 3.2318-4.7008 3.2318-21.447v-130.15q0-13.221-2.938-19.097-2.0566-4.2601-7.6388-7.0512-5.4353-2.938-17.628-2.938v-5.4353h56.409l72.275 155.86 71.099-155.86h56.409v5.4353h-6.9043q-12.78 0-18.069 7.6388-3.2318 4.7008-3.2318 21.447v130.15q0 18.362 4.1132 22.916 5.4353 6.1698 17.187 6.1698h6.9043v5.4353h-84.614v-5.4353h7.0512q12.78 0 17.922-7.6388 3.2318-4.7008 3.2318-21.447v-133.09l-76.828 167.61z"/></g><g fill="#b5fecb" stroke-width=".37665" aria-label="G"><path d="m372.02 82.208 10.283 125.75h-10.283q-15.571-47.008-40.25-70.805-35.55-34.374-91.371-34.374-76.094 0-115.76 60.229-33.199 50.827-33.199 121.04 0 56.997 22.035 104 22.035 47.008 57.584 69.043 35.843 21.741 73.45 21.741 22.035 0 42.601-5.5822t39.663-16.453v-115.17q0-29.967-4.7008-39.075-4.407-9.4015-14.102-14.102-9.4015-4.9946-33.493-4.9946v-11.164h154.24v11.164h-7.345q-22.916 0-31.436 15.278-5.876 10.871-5.876 42.895v121.93q-33.787 18.215-66.692 26.736-32.905 8.5202-73.156 8.5202-115.46 0-175.4-74.037-44.951-55.528-44.951-128.1 0-52.59 25.267-100.77 29.967-57.291 82.264-88.14 43.776-25.56 103.42-25.56 21.741 0 39.369 3.5256 17.922 3.5256 50.533 15.571 16.453 6.1698 22.035 6.1698t9.4016-4.9946q4.1132-5.2884 4.9946-20.272z"/></g></svg>
