<?xml version="1.0" encoding="UTF-8" standalone="no"?>
<!-- Created with Inkscape (http://www.inkscape.org/) -->

<svg
   width="2500"
   height="2500"
   viewBox="0 0 661.45833 661.45833"
   version="1.1"
   id="svg5"
   inkscape:version="1.2.2 (b0a8486541, 2022-12-01)"
   sodipodi:docname="favicon-dark-pathed.svg"
   xmlns:inkscape="http://www.inkscape.org/namespaces/inkscape"
   xmlns:sodipodi="http://sodipodi.sourceforge.net/DTD/sodipodi-0.dtd"
   xmlns="http://www.w3.org/2000/svg"
   xmlns:svg="http://www.w3.org/2000/svg">
  <sodipodi:namedview
     id="namedview7"
     pagecolor="#505050"
     bordercolor="#ffffff"
     borderopacity="1"
     inkscape:showpageshadow="0"
     inkscape:pageopacity="0"
     inkscape:pagecheckerboard="1"
     inkscape:deskcolor="#505050"
     inkscape:document-units="px"
     showgrid="false"
     showguides="false"
     inkscape:zoom="0.2762235"
     inkscape:cx="791.02611"
     inkscape:cy="1319.5836"
     inkscape:window-width="1900"
     inkscape:window-height="1060"
     inkscape:window-x="0"
     inkscape:window-y="0"
     inkscape:window-maximized="0"
     inkscape:current-layer="layer1" />
  <defs
     id="defs2" />
  <g
     inkscape:label="Layer 1"
     inkscape:groupmode="layer"
     id="layer1">
    <g
       aria-label="M"
       id="text236-2"
       style="font-size:401.133px;line-height:1.25;font-family:Merriweather;-inkscape-font-specification:Merriweather;fill:#ffa6a6;stroke-width:0.376062">
      <path
         d="M 498.12118,547.39905 421.14589,379.78681 v 133.09087 q 0,18.36243 3.96628,22.91631 5.43528,6.16978 17.18723,6.16978 h 7.05118 v 5.43528 h -69.33653 v -5.43528 h 7.05117 q 12.63335,0 17.92173,-7.63877 3.23179,-4.70078 3.23179,-21.44732 V 382.7248 q 0,-13.22095 -2.93799,-19.09692 -2.05659,-4.26009 -7.63877,-7.05117 -5.43528,-2.93799 -17.62793,-2.93799 v -5.43528 h 56.40938 l 72.27451,155.86028 71.09932,-155.86028 h 56.40937 v 5.43528 h -6.90427 q -12.78025,0 -18.06863,7.63877 -3.23178,4.70078 -3.23178,21.44731 v 130.15288 q 0,18.36243 4.11318,22.91631 5.43528,6.16978 17.18723,6.16978 h 6.90427 v 5.43528 h -84.61406 v -5.43528 h 7.05117 q 12.78025,0 17.92173,-7.63877 3.23179,-4.70078 3.23179,-21.44732 V 379.78681 l -76.8284,167.61224 z"
         style="font-size:300.85px"
         id="path241" />
    </g>
    <g
       aria-label="G"
       id="text236"
       style="font-size:601.699px;line-height:1.25;font-family:monospace;-inkscape-font-specification:monospace;fill:#b5fecb;stroke-width:0.376654">
      <path
         d="M 372.02311,82.208019 382.30605,207.9537 h -10.28294 q -15.57131,-47.00773 -40.25037,-70.80539 -35.5496,-34.37441 -91.37128,-34.37441 -76.09377,0 -115.75654,60.22866 -33.199216,50.82711 -33.199216,121.04491 0,56.99688 22.034876,104.00461 22.03487,47.00773 57.58447,69.0426 35.8434,21.74108 73.44958,21.74108 22.03488,0 42.60076,-5.58217 20.56588,-5.58217 39.66277,-16.4527 V 341.63194 q 0,-29.96743 -4.70077,-39.07518 -4.40697,-9.40154 -14.10232,-14.10232 -9.40154,-4.99457 -33.49301,-4.99457 v -11.16433 h 154.24412 v 11.16433 h -7.34495 q -22.91627,0 -31.43643,15.27752 -5.87596,10.87053 -5.87596,42.89455 v 121.92631 q -33.78681,18.21549 -66.69222,26.73565 -32.90541,8.52015 -73.15579,8.52015 -115.46274,0 -175.397597,-74.03718 -44.951144,-55.52789 -44.951144,-128.09607 0,-52.5899 25.266656,-100.77283 29.967429,-57.29067 82.263535,-88.1395 43.77595,-25.560451 103.41701,-25.560451 21.74107,0 39.36897,3.52558 17.9217,3.52558 50.53332,15.571311 16.4527,6.16976 22.03487,6.16976 5.58217,0 9.40155,-4.99457 4.11317,-5.288367 4.99457,-20.272081 z"
         style="font-family:'Times New Roman';-inkscape-font-specification:'Times New Roman, '"
         id="path238" />
    </g>
  </g>
</svg>
