<?xml version="1.0" encoding="UTF-8" standalone="no"?>
<!-- Created with Inkscape (http://www.inkscape.org/) -->

<svg
   width="2500"
   height="2500"
   viewBox="0 0 661.45833 661.45833"
   version="1.1"
   id="svg5"
   inkscape:version="1.2.2 (b0a8486541, 2022-12-01)"
   sodipodi:docname="icon-dark-pathed.svg"
   xmlns:inkscape="http://www.inkscape.org/namespaces/inkscape"
   xmlns:sodipodi="http://sodipodi.sourceforge.net/DTD/sodipodi-0.dtd"
   xmlns="http://www.w3.org/2000/svg"
   xmlns:svg="http://www.w3.org/2000/svg">
  <sodipodi:namedview
     id="namedview7"
     pagecolor="#505050"
     bordercolor="#ffffff"
     borderopacity="1"
     inkscape:showpageshadow="0"
     inkscape:pageopacity="0"
     inkscape:pagecheckerboard="1"
     inkscape:deskcolor="#505050"
     inkscape:document-units="px"
     showgrid="false"
     showguides="false"
     inkscape:zoom="0.19531951"
     inkscape:cx="760.29271"
     inkscape:cy="2014.6477"
     inkscape:window-width="1920"
     inkscape:window-height="1080"
     inkscape:window-x="0"
     inkscape:window-y="0"
     inkscape:window-maximized="0"
     inkscape:current-layer="layer1" />
  <defs
     id="defs2" />
  <g
     inkscape:label="Layer 1"
     inkscape:groupmode="layer"
     id="layer1">
    <g
       aria-label="T"
       id="text236-2-9"
       style="font-size:405.694px;line-height:1.25;font-family:Merriweather;-inkscape-font-specification:Merriweather;fill:#b5d1fd;stroke-width:0.264583">
      <path
         d="m 627.60508,171.31125 2.97139,62.9935 h -7.52752 q -2.17902,-16.63979 -5.94279,-23.77113 -6.14087,-11.48938 -16.4417,-16.83789 -10.10273,-5.5466 -26.74252,-5.5466 h -37.83572 v 205.22412 q 0,24.76159 5.3485,30.90247 7.52753,8.3199 23.17686,8.3199 h 9.31036 v 7.32943 H 460.01859 v -7.32943 h 9.50846 q 17.03597,0 24.16731,-10.30083 4.35805,-6.33897 4.35805,-28.92154 V 188.14913 h -32.28913 q -18.81881,0 -26.74252,2.7733 -10.30083,3.76377 -17.63026,14.46077 -7.32943,10.69701 -8.71608,28.92155 h -7.52753 l 3.16949,-62.9935 z"
         style="font-family:'Times New Roman';-inkscape-font-specification:'Times New Roman, '"
         id="path246" />
    </g>
    <g
       aria-label="M"
       id="text236-2"
       style="font-size:282.222px;line-height:1.25;font-family:Merriweather;-inkscape-font-specification:Merriweather;fill:#ffa6a6;stroke-width:0.264583">
      <path
         d="M 375.14619,492.1308 320.9892,374.20499 v 93.63785 q 0,12.91912 2.79053,16.12307 3.82406,4.34083 12.0923,4.34083 h 4.96095 v 3.82406 h -48.78263 v -3.82406 h 4.96094 q 8.88837,0 12.60907,-5.37436 2.27377,-3.3073 2.27377,-15.08954 v -91.57079 q 0,-9.30177 -2.06706,-13.43589 -1.44694,-2.99724 -5.37436,-4.96095 -3.82406,-2.06706 -12.40236,-2.06706 v -3.82406 h 39.68756 l 50.84969,109.65756 50.02287,-109.65756 h 39.68757 v 3.82406 h -4.8576 q -8.99171,0 -12.71242,5.37436 -2.27377,3.3073 -2.27377,15.08954 v 91.57079 q 0,12.91912 2.89389,16.12307 3.82406,4.34083 12.0923,4.34083 h 4.8576 v 3.82406 h -59.53135 v -3.82406 h 4.96095 q 8.99171,0 12.60906,-5.37436 2.27377,-3.3073 2.27377,-15.08954 V 374.20499 L 378.55684,492.1308 Z"
         style="font-size:211.667px"
         id="path243" />
    </g>
    <g
       aria-label="G"
       id="text236"
       style="font-size:423.333px;line-height:1.25;font-family:monospace;-inkscape-font-specification:monospace;fill:#b5fecb;stroke-width:0.265">
      <path
         d="m 286.42823,164.83972 7.23469,88.46998 h -7.23469 q -10.9554,-33.07289 -28.31867,-49.81604 -25.01137,-24.18455 -64.28543,-24.18455 -53.53674,0 -81.442,42.37464 -23.357725,35.76006 -23.357725,85.1627 0,40.10088 15.502915,73.17377 15.50292,33.07289 40.5143,48.57581 25.21807,15.29621 51.67639,15.29621 15.50292,0 29.97231,-3.92741 14.46939,-3.9274 27.90525,-11.57551 v -81.02858 q 0,-21.08397 -3.30729,-27.49184 -3.10059,-6.61458 -9.92187,-9.92187 -6.61458,-3.514 -23.56443,-3.514 v -7.85481 H 326.3224 v 7.85481 h -5.16764 q -16.12303,0 -22.1175,10.74869 -4.13411,7.64811 -4.13411,30.17902 v 85.78281 q -23.77114,12.81574 -46.92216,18.81021 -23.15102,5.99446 -51.46969,5.99446 -81.23529,0 -123.403223,-52.08981 -31.625953,-39.06735 -31.625953,-90.12363 0,-37.00029 17.776679,-70.90001 21.083969,-40.30758 57.877557,-62.01167 30.79913,-17.98338 72.76036,-17.98338 15.29622,0 27.69855,2.48047 12.60904,2.48046 35.55336,10.95539 11.57551,4.34082 15.50292,4.34082 3.9274,0 6.61457,-3.514 2.89388,-3.7207 3.514,-14.26268 z"
         style="font-family:'Times New Roman';-inkscape-font-specification:'Times New Roman, '"
         id="path240" />
    </g>
  </g>
</svg>
