<?xml version="1.0" encoding="UTF-8" standalone="no"?>
<svg
   version="1.1"
   viewBox="0 0 512 512"
   id="svg4"
   sodipodi:docname="user.svg"
   inkscape:version="1.2.2 (b0a8486541, 2022-12-01)"
   width="512"
   height="512"
   xmlns:inkscape="http://www.inkscape.org/namespaces/inkscape"
   xmlns:sodipodi="http://sodipodi.sourceforge.net/DTD/sodipodi-0.dtd"
   xmlns="http://www.w3.org/2000/svg"
   xmlns:svg="http://www.w3.org/2000/svg">
  <defs
     id="defs8" />
  <sodipodi:namedview
     id="namedview6"
     pagecolor="#505050"
     bordercolor="#ffffff"
     borderopacity="1"
     inkscape:showpageshadow="0"
     inkscape:pageopacity="0"
     inkscape:pagecheckerboard="1"
     inkscape:deskcolor="#505050"
     showgrid="false"
     inkscape:zoom="1.1497396"
     inkscape:cx="183.08494"
     inkscape:cy="246.57757"
     inkscape:window-width="1900"
     inkscape:window-height="1060"
     inkscape:window-x="0"
     inkscape:window-y="0"
     inkscape:window-maximized="1"
     inkscape:current-layer="svg4" />
  <!--! Font Awesome Pro 6.4.0 by @fontawesome - https://fontawesome.com License - https://fontawesome.com/license (Commercial License) Copyright 2023 Fonticons, Inc. -->
  <path
     d="m 308.93283,171.30691 a 52.933182,52.933182 0 1 0 -105.86636,0 52.933182,52.933182 0 1 0 105.86636,0 z m -137.62627,0 a 84.693092,84.693092 0 1 1 169.38618,0 84.693092,84.693092 0 1 1 -169.38618,0 z m -30.89975,222.31936 h 231.18568 c -5.88882,-41.88338 -41.88339,-74.10646 -85.35476,-74.10646 h -60.47616 c -43.47137,0 -79.46594,32.22308 -85.35476,74.10646 z m -32.62007,12.10846 c 0,-65.17397 52.80085,-117.97482 117.97483,-117.97482 h 60.47616 c 65.17398,0 117.97483,52.80085 117.97483,117.97482 0,10.85131 -8.80014,19.65145 -19.65144,19.65145 H 127.43818 c -10.8513,0 -19.65144,-8.80014 -19.65144,-19.65145 z"
     fill="#ffffff"
     id="path2"
     style="stroke-width:0.661665" />
</svg>
